<?xml version="1.0" encoding="utf-8"?>
<!-- Generator: Adobe Illustrator 17.0.0, SVG Export Plug-In . SVG Version: 6.00 Build 0)  -->
<!DOCTYPE svg PUBLIC "-//W3C//DTD SVG 1.1//EN" "http://www.w3.org/Graphics/SVG/1.1/DTD/svg11.dtd">
<svg version="1.1" id="Layer_1" xmlns="http://www.w3.org/2000/svg" xmlns:xlink="http://www.w3.org/1999/xlink" x="0px" y="0px"
	 width="548.1px" height="245.34px" viewBox="0 0 548.1 245.34" enable-background="new 0 0 548.1 245.34" xml:space="preserve">
<path fill="#010202" d="M548.1,208.49c-8.47,9.05-18.16,25.39-23.57,36.26c-91.87-9.05-179.49-29.03-251.97-60.45l-42.91-20.54
	c-33.85-18.73-64.07-40.5-88.23-65.87l27.81-19.95v0.61c25.98,26.58,61.6,49.56,103.33,67.69l44.09,17.52
	C384.36,187.33,464.1,201.82,548.1,208.49z"/>
<path fill="#010202" d="M441.12,62.83c-1.18,2.41-4.82,4.85-8.46,5.44c-28.96,39.29-68.87,70.71-116.01,95.49l-44.09,20.54
	c-74.35,30.83-161.99,49.58-251.4,61.04C17.52,235.7,7.24,219.36,0,210.9c80.95-8.47,161.35-22.96,229.65-47.14l42.91-17.52
	c41.09-18.13,76.71-41.11,102.7-68.3H169.23l37.44-31.42h198.8l7.28-1.82L441.12,62.83z"/>
<path fill="#010202" d="M218.78,1.79L200.62,0C155.89,54.37,79.18,102.72,7.83,129.93c8.46,6.64,21.16,18.72,27.21,25.98
	c35.67-15.11,72.53-35.06,106.38-58.02l27.81-19.95l37.44-31.42c10.29-9.67,19.34-19.34,27.8-29.01c6.06,0.59,10.88-1.2,13.29-4.23
	L218.78,1.79z"/>
</svg>
