<?xml version="1.0" encoding="utf-8"?>
<!-- Generator: Adobe Illustrator 17.0.0, SVG Export Plug-In . SVG Version: 6.00 Build 0)  -->
<!DOCTYPE svg PUBLIC "-//W3C//DTD SVG 1.1//EN" "http://www.w3.org/Graphics/SVG/1.1/DTD/svg11.dtd">
<svg version="1.1" id="Layer_1" xmlns="http://www.w3.org/2000/svg" xmlns:xlink="http://www.w3.org/1999/xlink" x="0px" y="0px"
	 width="485.845px" height="147.449px" viewBox="0 0 485.845 147.449" enable-background="new 0 0 485.845 147.449"
	 xml:space="preserve">
<path fill="#010202" d="M170.404,142.627c-26.572-4.232-33.854-15.722-33.854-43.524V36.856l49.551,3.641
	c-0.59,4.207-3.592,7.233-11.465,7.849v50.757c0,12.08,4.232,14.516,30.804,14.516h94.92c19.929,0,24.161-4.847,25.981-42.909
	c7.824,5.437,22.93,9.669,33.215,12.08c-4.232,50.167-15.107,61.632-54.374,61.632H188.561L170.404,142.627z"/>
<path fill="#010202" d="M213.903,0c30.853,13.901,66.479,33.239,85.227,48.936l-21.75,25.391
	C257.451,57.4,218.135,34.445,185.51,19.929L203.668,0H213.903z"/>
<path fill="#010202" d="M107.567,49.551c-13.286,40.497-35.035,77.353-79.765,97.897L0,122.673
	c39.267-16.312,63.428-48.961,74.942-84.611L107.567,49.551z"/>
<path fill="#010202" d="M456.223,143.832c-19.929-26.596-62.813-66.479-99.078-94.281l27.802-19.953
	c36.831,26.006,80.33,64.068,100.899,91.254L456.223,143.832z"/>
</svg>
