<svg xmlns="http://www.w3.org/2000/svg" xmlns:xlink="http://www.w3.org/1999/xlink" viewBox="0 0 620.499 560.572"><defs><path id="a" d="M289.895 70.377V0l51.718 3.625c-.613 4.21-3.6 7.198-12.023 8.423v58.33h-39.695z"/><path id="c" d="M38.452 70.377h545.592v37.27H38.452z"/><path id="e" d="M128.69 158.19h39.754v166.03H128.69z"/><path id="g" d="M168.36 158.19v36.098h286.345V324.22h39.714V158.192"/><path id="i" d="M168.414 288.713h286.29v35.508h-286.29z"/><path id="k" d="M178.01 418.06c-40.896 20.422-83.603 37.27-122.71 48.68-5.413-9.6-16.237-24.046-24.66-32.472 80.59-19.835 174.428-62.54 234.57-110.048l51.037.01c-20.5 22.68-60.637 50.484-93.132 69.73l-45.106 24.1z"/><path id="m" d="M178.01 506.484v-88.426l45.106-24.097 6.024 1.227c-1.2 3.624-4.21 6.61-12.023 7.787v99.3l-39.108 4.21z"/><path id="o" d="M366.272 484.838l1.2 33.598c-86.002 12.635-177.44 24.097-235.183 31.345-.588 4.213-3.6 7.15-7.225 8.425l-19.834-44.57 261.042-28.797z"/><path id="q" d="M396.957 407.187c43.882-24.636 98.05-61.318 129.884-88.99l39.72 29.484c-2.398 3.576-9.012 3.576-13.224 2.987-34.28 24.048-90.214 57.743-134.732 79.39l-21.647-22.87z"/><path id="s" d="M418.604 430.058c45.744 45.083 104.024 78.19 173.815 96.214-9.012 7.836-20.423 23.51-25.86 34.283-120.285-36.634-215.896-122.31-260.813-236.334h39.466c13.248 30.072 30.685 57.744 51.744 82.967l21.647 22.87z"/></defs><clipPath id="b"><use xlink:href="#a" overflow="visible"/></clipPath><path clip-path="url(#b)" fill="none" stroke="#6B7CBC" stroke-width="52" d="M315.622 0v70.37"/><clipPath id="d"><use xlink:href="#c" overflow="visible"/></clipPath><path clip-path="url(#d)" fill="none" stroke="#6B7CBC" stroke-width="38" d="M38.45 89.33h545.63"/><clipPath id="f"><use xlink:href="#e" overflow="visible"/></clipPath><path clip-path="url(#f)" fill="none" stroke="#6B7CBC" stroke-width="41" d="M148.747 324.2V158.183"/><clipPath id="h"><use xlink:href="#g" overflow="visible"/></clipPath><path clip-path="url(#h)" fill="none" stroke="#6B7CBC" stroke-width="41" d="M168.444 176.24h306.118v147.98"/><clipPath id="j"><use xlink:href="#i" overflow="visible"/></clipPath><path clip-path="url(#j)" fill="none" stroke="#6B7CBC" stroke-width="41" d="M168.444 306.467h286.26"/><clipPath id="l"><use xlink:href="#k" overflow="visible"/></clipPath><path clip-path="url(#l)" fill="none" stroke="#6B7CBC" stroke-width="44" stroke-miterlimit="10" d="M312.054 317.126S145.836 434.846 31.58 448.996"/><clipPath id="n"><use xlink:href="#m" overflow="visible"/></clipPath><path clip-path="url(#n)" fill="none" stroke="#6B7CBC" stroke-width="51" d="M203.574 393.962v112.522"/><clipPath id="p"><use xlink:href="#o" overflow="visible"/></clipPath><path clip-path="url(#p)" fill="none" stroke="#6B7CBC" stroke-width="57" stroke-miterlimit="10" d="M105.23 513.635l37.017 24.695 211-33.333 13.75-20.834"/><clipPath id="r"><use xlink:href="#q" overflow="visible"/></clipPath><path clip-path="url(#r)" fill="none" stroke="#6B7CBC" stroke-width="54" stroke-miterlimit="10" d="M553.247 320.196s-29.17 61.707-157.667 94.133"/><clipPath id="t"><use xlink:href="#s" overflow="visible"/></clipPath><path clip-path="url(#t)" fill="none" stroke="#6B7CBC" stroke-width="49" d="M316.248 315.496s108.5 206.025 279 228.645"/></svg>