<?xml version="1.0" encoding="utf-8"?>
<!-- Generator: Adobe Illustrator 16.0.0, SVG Export Plug-In . SVG Version: 6.00 Build 0)  -->
<!DOCTYPE svg PUBLIC "-//W3C//DTD SVG 1.1//EN" "http://www.w3.org/Graphics/SVG/1.1/DTD/svg11.dtd">
<svg version="1.1" id="Layer_5" xmlns="http://www.w3.org/2000/svg" xmlns:xlink="http://www.w3.org/1999/xlink" x="0px" y="0px"
	 width="620.499px" height="560.572px" viewBox="0 0 620.499 560.572" enable-background="new 0 0 620.499 560.572"
	 xml:space="preserve">
<g id="_x31__1_">
	<defs>
		<path id="_x31_" d="M289.895,70.377V0l51.718,3.625c-0.613,4.211-3.6,7.198-12.023,8.423v58.33H289.895z"/>
	</defs>
	<clipPath id="_x31__2_">
		<use xlink:href="#_x31_"  overflow="visible"/>
	</clipPath>
	<line clip-path="url(#_x31__2_)" fill="none" stroke="#6B7CBC" stroke-width="52" x1="315.622" y1="0" x2="315.622" y2="70.371"/>
</g>
<g id="_x32__1_">
	<defs>
		<rect id="_x32_" x="38.452" y="70.377" width="545.592" height="37.271"/>
	</defs>
	<clipPath id="_x32__2_">
		<use xlink:href="#_x32_"  overflow="visible"/>
	</clipPath>
	<line clip-path="url(#_x32__2_)" fill="none" stroke="#6B7CBC" stroke-width="38" x1="38.45" y1="89.33" x2="584.08" y2="89.33"/>
</g>
<g id="_x33__1_">
	<defs>
		<rect id="_x33_" x="128.69" y="158.191" width="39.754" height="166.029"/>
	</defs>
	<clipPath id="_x33__2_">
		<use xlink:href="#_x33_"  overflow="visible"/>
	</clipPath>
	
		<line clip-path="url(#_x33__2_)" fill="none" stroke="#6B7CBC" stroke-width="41" x1="148.747" y1="324.199" x2="148.747" y2="158.184"/>
</g>
<g id="_x34__1_">
	<defs>
		<polygon id="_x34_" points="168.361,158.191 168.361,194.288 454.705,194.288 454.705,324.221 494.419,324.221 494.419,194.288 
			494.419,158.191 		"/>
	</defs>
	<clipPath id="_x34__2_">
		<use xlink:href="#_x34_"  overflow="visible"/>
	</clipPath>
	<polyline clip-path="url(#_x34__2_)" fill="none" stroke="#6B7CBC" stroke-width="41" points="168.444,176.24 474.562,176.24 
		474.562,324.221 	"/>
</g>
<g id="_x35__1_">
	<defs>
		<rect id="_x35_" x="168.414" y="288.713" width="286.291" height="35.508"/>
	</defs>
	<clipPath id="_x35__2_">
		<use xlink:href="#_x35_"  overflow="visible"/>
	</clipPath>
	
		<line clip-path="url(#_x35__2_)" fill="none" stroke="#6B7CBC" stroke-width="41" x1="168.444" y1="306.467" x2="454.705" y2="306.467"/>
</g>
<g id="_x37_">
	<defs>
		<path id="_x36__1_" d="M178.009,418.059C137.114,438.482,94.407,455.33,55.3,466.741c-5.413-9.6-16.237-24.047-24.66-32.473
			c80.59-19.835,174.428-62.541,234.57-110.048l51.037,0.01c-20.501,22.681-60.637,50.484-93.132,69.731L178.009,418.059z"/>
	</defs>
	<use xlink:href="#_x36__1_"  overflow="visible" fill="#6B7CBC"/>
	<clipPath id="_x36__2_">
		<use xlink:href="#_x36__1_"  overflow="visible"/>
	</clipPath>
	<path clip-path="url(#_x36__2_)" fill="#6B7CBC" d="M312.054,317.126c0,0-166.218,117.72-280.475,131.87"/>
	<path id="_x36_" clip-path="url(#_x36__2_)" fill="#6B7CBC" d="M178.009,418.059C137.114,438.482,94.407,455.33,55.3,466.741
		c-5.413-9.6-16.237-24.047-24.66-32.473c80.59-19.835,174.428-62.541,234.57-110.048l51.037,0.01
		c-20.501,22.681-60.637,50.484-93.132,69.731L178.009,418.059z"/>
</g>
<g id="_x38__1_">
	<defs>
		<path id="_x37_-a" d="M178.009,506.484v-88.426l45.107-24.097l6.024,1.226c-1.2,3.624-4.211,6.61-12.023,7.787v99.299
			L178.009,506.484z"/>
	</defs>
	<clipPath id="_x37_-a_1_">
		<use xlink:href="#_x37__x002D_a"  overflow="visible"/>
	</clipPath>
	
		<line clip-path="url(#_x37_-a_1_)" fill="none" stroke="#6B7CBC" stroke-width="51" x1="203.574" y1="393.962" x2="203.574" y2="506.484"/>
</g>
<g id="_x39__1_">
	<defs>
		<path id="_x37_-b" d="M366.272,484.838l1.2,33.598c-86.002,12.635-177.44,24.097-235.183,31.345
			c-0.587,4.212-3.599,7.15-7.224,8.424l-19.834-44.569L366.272,484.838z"/>
	</defs>
	<clipPath id="_x37_-b_1_">
		<use xlink:href="#_x37__x002D_b"  overflow="visible"/>
	</clipPath>
	<polyline clip-path="url(#_x37_-b_1_)" fill="none" stroke="#6B7CBC" stroke-width="57" stroke-miterlimit="10" points="
		105.231,513.635 142.247,538.33 353.247,504.997 366.997,484.163 	"/>
</g>
<g id="_x31_0">
	<defs>
		<path id="_x38_" d="M396.957,407.187c43.882-24.636,98.05-61.318,129.884-88.99l39.719,29.484
			c-2.398,3.575-9.012,3.575-13.224,2.986c-34.281,24.048-90.214,57.743-134.732,79.391L396.957,407.187z"/>
	</defs>
	<clipPath id="_x38__2_">
		<use xlink:href="#_x38_"  overflow="visible"/>
	</clipPath>
	<path clip-path="url(#_x38__2_)" fill="#EC1E58" stroke="#6B7CBC" stroke-width="54" stroke-miterlimit="10" d="M553.247,320.196
		c0,0-29.17,61.707-157.667,94.133"/>
</g>
<g id="_x31_1">
	<defs>
		<path id="_x39_" d="M418.604,430.058c45.744,45.083,104.024,78.19,173.815,96.214c-9.011,7.836-20.422,23.509-25.859,34.283
			c-120.285-36.634-215.896-122.309-260.813-236.334h39.466c13.248,30.071,30.685,57.743,51.744,82.966L418.604,430.058z"/>
	</defs>
	<clipPath id="_x39__2_">
		<use xlink:href="#_x39_"  overflow="visible"/>
	</clipPath>
	<path clip-path="url(#_x39__2_)" fill="none" stroke="#6B7CBC" stroke-width="49" d="M316.248,315.496
		c0,0,108.499,206.025,278.999,228.645"/>
</g>
</svg>
