<svg xmlns="http://www.w3.org/2000/svg" xmlns:xlink="http://www.w3.org/1999/xlink" viewBox="0 0 620.499 563.198"><defs><path id="a" d="M584.327 526.372c-8.47 9.05-18.16 25.39-23.57 36.26-91.87-9.05-179.49-29.03-251.97-60.45l-42.91-20.54c-33.85-18.73-64.07-40.5-88.23-65.87l27.81-19.95v.61c25.98 26.58 61.6 49.56 103.33 67.69l44.09 17.52c67.71 23.57 147.45 38.06 231.45 44.73z"/><path id="c" d="M477.347 380.71c-1.18 2.41-4.82 4.85-8.46 5.44-28.96 39.29-68.87 70.71-116.01 95.49l-44.09 20.54c-74.35 30.83-161.99 49.58-251.4 61.04-3.64-9.64-13.92-25.98-21.16-34.44 80.95-8.47 161.35-22.96 229.65-47.14l42.91-17.52c41.09-18.13 76.71-41.11 102.7-68.3h-206.03l37.44-31.42h198.8l7.28-1.82 28.37 18.13z"/><path id="e" d="M255.007 319.672l-18.16-1.79c-44.73 54.37-121.44 102.72-192.79 129.93 8.46 6.64 21.16 18.72 27.21 25.98 38.622-16.36 74.017-36.068 106.38-58.02l27.81-19.95 37.44-31.42c10.29-9.67 19.34-19.34 27.8-29.01 6.06.59 10.88-1.2 13.29-4.23l-28.98-11.49z"/><path id="g" d="M522.666 319.083c-19.93-26.596-62.813-66.48-99.078-94.28l27.802-19.954c36.83 26.004 80.33 64.066 100.9 91.252l-29.624 22.98z"/><path id="i" d="M280.346 175.25c30.853 13.902 66.48 33.24 85.227 48.937l-21.75 25.39c-19.93-16.926-59.245-39.88-91.87-54.397l18.158-19.93h10.237z"/><path id="k" d="M236.847 317.877c-26.572-4.232-33.854-15.722-33.854-43.524v-62.247l49.55 3.64c-.59 4.208-3.59 7.234-11.464 7.85v50.757c0 12.08 4.23 14.516 30.802 14.516h94.92c19.93 0 24.16-4.85 25.98-42.91 7.825 5.436 22.93 9.67 33.216 12.08-4.233 50.166-15.108 61.63-54.375 61.63h-116.62l-18.158-1.794z"/><path id="m" d="M174.01 224.802c-13.286 40.497-35.035 77.353-79.765 97.897L66.443 297.92c39.267-16.312 63.428-48.96 74.942-84.61l32.625 11.49z"/><path id="o" d="M560.752 141.396v103.95h-40.497V175.25H96.065v-33.854h464.687"/><path id="q" d="M57.39 141.396h38.676V241.73H57.39z"/><path id="s" d="M468.883 51.963l44.73 19.953c-1.822 3.002-6.053 4.822-12.696 4.822-12.105 18.748-30.213 43.524-48.297 64.658h-42.318c19.93-24.775 44.73-63.452 58.58-89.433"/><path id="u" d="M300.324 58.015c15.107 22.365 28.392 50.142 33.215 69.48l-36.268 13.31c-4.232-21.75-19.93-54.397-36.266-78.558l5.462-1.82 33.854-2.412z"/><path id="w" d="M167.367 141.396c-7.283-20.544-24.16-47.73-40.497-67.684l16.337-6.643 21.75-1.208c17.517 21.16 33.804 47.14 39.857 66.48l-19.93 9.053h-17.517z"/><path id="y" d="M266.47 60.426c-33.854 2.41-68.3 4.232-101.514 5.437l-21.75 1.206-66.48 1.82c-.64-9.08-4.87-23.57-8.463-31.42C220.56 32.624 407.89 20.544 506.378 0l30.804 30.804c-1.23 1.206-3.64 1.82-6.052 1.82-1.82 0-3.64-.614-6.052-1.205-57.375 10.873-138.346 19.927-224.753 26.594l-33.855 2.41z"/></defs><clipPath id="b"><use xlink:href="#a" overflow="visible"/></clipPath><path clip-path="url(#b)" fill="none" stroke="#8B001B" stroke-width="45" stroke-miterlimit="10" d="M185.247 399.288s119 135.333 397.077 143.333"/><clipPath id="d"><use xlink:href="#c" overflow="visible"/></clipPath><path clip-path="url(#d)" fill="none" stroke="#8B001B" stroke-width="45" stroke-miterlimit="10" d="M191.914 374.622h263.333s-118 159.333-419.02 173.577"/><clipPath id="f"><use xlink:href="#e" overflow="visible"/></clipPath><path clip-path="url(#f)" fill="none" stroke="#8B001B" stroke-width="45" stroke-miterlimit="10" d="M274.747 313.622s-143.67 134-230.69 146.5"/><clipPath id="h"><use xlink:href="#g" overflow="visible"/></clipPath><path clip-path="url(#h)" fill="none" stroke="#8B001B" stroke-width="40" stroke-miterlimit="10" d="M432.918 211.288s93.08 71.966 108.014 101.99"/><clipPath id="j"><use xlink:href="#i" overflow="visible"/></clipPath><path clip-path="url(#j)" fill="none" stroke="#8B001B" stroke-width="40" stroke-miterlimit="10" d="M257.747 179.622s83.582 38.054 99.375 62.108"/><clipPath id="l"><use xlink:href="#k" overflow="visible"/></clipPath><path clip-path="url(#l)" fill="none" stroke="#8B001B" stroke-width="56" stroke-miterlimit="10" d="M229.247 197.122c3.985 17.207-31.5 105.5 37.765 109.32 70.235-1.82 129.235 20.18 147.485-61.095"/><clipPath id="n"><use xlink:href="#m" overflow="visible"/></clipPath><path clip-path="url(#n)" fill="none" stroke="#8B001B" stroke-width="42" stroke-miterlimit="10" d="M159.247 212.107s4.775 50.757-85 101.515"/><clipPath id="p"><use xlink:href="#o" overflow="visible"/></clipPath><path clip-path="url(#p)" fill="none" stroke="#8B001B" stroke-width="44" stroke-miterlimit="10" d="M96.066 158.324h444.437v87.022"/><clipPath id="r"><use xlink:href="#q" overflow="visible"/></clipPath><path clip-path="url(#r)" fill="none" stroke="#8B001B" stroke-width="40" stroke-miterlimit="10" d="M76.727 141.396V241.73"/><clipPath id="t"><use xlink:href="#s" overflow="visible"/></clipPath><path clip-path="url(#t)" fill="none" stroke="#8B001B" stroke-width="53" stroke-miterlimit="10" d="M494.247 55.622l-70.66 99.5"/><clipPath id="v"><use xlink:href="#u" overflow="visible"/></clipPath><path clip-path="url(#v)" fill="none" stroke="#8B001B" stroke-width="43" stroke-miterlimit="10" d="M270.914 48.288s37.473 38.093 45.296 89.89"/><clipPath id="x"><use xlink:href="#w" overflow="visible"/></clipPath><path clip-path="url(#x)" fill="none" stroke="#8B001B" stroke-width="43" stroke-miterlimit="10" d="M140.986 62.01s30.164 38.56 49.594 79.386"/><clipPath id="z"><use xlink:href="#y" overflow="visible"/></clipPath><path clip-path="url(#z)" fill="none" stroke="#8B001B" stroke-width="44" stroke-miterlimit="10" d="M534.477 12.087s-246.54 39.83-468.034 39.83"/></svg>