<svg xmlns="http://www.w3.org/2000/svg" xmlns:xlink="http://www.w3.org/1999/xlink" viewBox="0 0 620.499 560.572"><defs><path id="a" d="M432.66 398.786h-26.47l-4.21 18.045c32.48 69.177 86.618 119.705 164.816 143.766 4.812-10.827 16.843-27.07 25.264-34.89-75.19-19.246-129.93-64.36-159.403-126.92z"/><path id="c" d="M432.66 398.786h-26.47l-4.21 18.045c32.48 69.177 86.618 119.705 164.816 143.766 4.812-10.827 16.843-27.07 25.264-34.89-75.19-19.246-129.93-64.36-159.403-126.92z"/><path id="e" d="M401.98 416.832c-20.45 52.332-66.166 104.063-167.823 142.56-4.812-9.023-16.24-23.458-24.662-30.678 97.446-36.09 139.553-83.01 156.997-129.928l9.023-36.092c2.407-15.038 3.01-29.474 3.01-43.31V277.28h38.496v42.708c0 13.835-.6 28.27-2.405 42.708l-12.633 54.138z"/><path id="g" d="M366.49 398.786H217.917v-36.092h363.92v36.092H432.66z"/><path id="i" d="M378.523 277.278H309.95l15.638-36.09H548.15v36.09H417.02z"/><path id="k" d="M309.95 277.278c-13.836 28.873-29.476 54.74-46.318 74.59-7.82-6.016-22.256-15.64-31.28-20.452 30.68-35.49 58.35-96.244 74.59-155.794l48.122 13.234c-1.805 4.21-6.015 6.015-13.234 6.015-4.81 15.64-10.225 30.68-16.24 46.32l-15.64 36.09z"/><path id="m" d="M494.616 128.702c-17.443-19.25-35.49-37.896-52.933-54.137l28.873-18.647c42.106 37.896 91.43 91.43 113.687 126.92l-30.678 21.656c-7.82-12.632-18.647-27.67-31.88-43.91l-27.07-31.882z"/><path id="o" d="M254.61 172.614c-1.204 4.812-4.813 7.218-9.024 8.42L231.15 135.32c16.842 0 36.692-.602 57.746-.602 22.858-39.7 49.325-95.04 64.363-134.74l49.323 13.834c-1.203 4.21-6.015 6.016-13.234 6.016-15.04 33.685-37.896 78.198-59.55 113.687 50.527-1.203 107.67-2.406 164.816-4.812l27.07 31.88c-99.254 5.414-201.513 9.624-267.078 12.03z"/><path id="q" d="M163.177 328.408v180.456c0 48.122-27.67 49.927-105.868 49.927-1.806-10.225-7.22-27.067-13.236-37.895 15.64.602 30.076.602 42.107.602 33.085 0 36.694 0 36.694-12.632V-.023l51.73 3.008c-.6 4.812-3.608 7.218-11.428 8.42V328.41z"/><path id="s" d="M122.875 342.243c-26.467 9.023-51.13 17.444-70.378 23.46-.602 4.81-3.61 8.42-7.82 9.624l-16.24-46.92c25.864-7.217 58.347-16.842 94.438-27.67l40.302-12.03 57.145-17.444c1.203 3.61 1.804 7.22 4.812 35.49l-61.956 21.655-40.303 13.835z"/><path id="u" d="M122.875 162.387H33.85v-37.895h185.87v37.895h-56.543z"/></defs><clipPath id="b"><use xlink:href="#a" overflow="visible"/></clipPath><path clip-path="url(#b)" fill="#EB1B39" d="M406.192 398.786s24.553 66.723 175.645 150.71"/><clipPath id="d"><use xlink:href="#c" overflow="visible"/></clipPath><path clip-path="url(#d)" fill="none" stroke="#EA1B39" stroke-width="60" stroke-miterlimit="10" d="M406.192 398.786s24.553 66.723 175.645 150.71"/><clipPath id="f"><use xlink:href="#e" overflow="visible"/></clipPath><path clip-path="url(#f)" fill="none" stroke="#EB1B39" stroke-width="52" stroke-miterlimit="10" d="M399.877 271.263s43.37 188.233-184.63 278.233"/><clipPath id="h"><use xlink:href="#g" overflow="visible"/></clipPath><path clip-path="url(#h)" fill="none" stroke="#EB1B39" stroke-width="40" stroke-miterlimit="10" d="M217.916 380.74h363.92"/><clipPath id="j"><use xlink:href="#i" overflow="visible"/></clipPath><path clip-path="url(#j)" fill="none" stroke="#EB1B39" stroke-width="40" stroke-miterlimit="10" d="M306.914 259.233H548.58"/><clipPath id="l"><use xlink:href="#k" overflow="visible"/></clipPath><path clip-path="url(#l)" fill="none" stroke="#EB1B39" stroke-width="56" stroke-miterlimit="10" d="M331.247 175.62s-34.805 127.8-98.895 176.247"/><clipPath id="n"><use xlink:href="#m" overflow="visible"/></clipPath><path clip-path="url(#n)" fill="none" stroke="#EB1B39" stroke-width="47" stroke-miterlimit="10" d="M448.247 60.996s61 28 125 139"/><clipPath id="p"><use xlink:href="#o" overflow="visible"/></clipPath><path clip-path="url(#p)" fill="none" stroke="#EB1B39" stroke-width="64" stroke-miterlimit="10" d="M380.247 0l-77 145.996-72.098 13.5 294.096-23.5"/><clipPath id="r"><use xlink:href="#q" overflow="visible"/></clipPath><path clip-path="url(#r)" fill="none" stroke="#EB1B39" stroke-width="64" stroke-miterlimit="10" d="M142.914-.023l.333 512.52s-19.5 67-136 0"/><clipPath id="t"><use xlink:href="#s" overflow="visible"/></clipPath><path clip-path="url(#t)" fill="none" stroke="#EB1B39" stroke-width="40" stroke-miterlimit="10" d="M35.53 348.898l189.604-64.203"/><clipPath id="v"><use xlink:href="#u" overflow="visible"/></clipPath><path clip-path="url(#v)" fill="none" stroke="#EB1B39" stroke-width="40" stroke-miterlimit="10" d="M33.85 143.44h185.87"/></svg>